<?xml version="1.0" encoding="UTF-8"?>
<!DOCTYPE svg PUBLIC "-//W3C//DTD SVG 1.1//EN" "http://www.w3.org/Graphics/SVG/1.1/DTD/svg11.dtd">
<svg xmlns="http://www.w3.org/2000/svg" version="1.1" width="225px" height="225px" style="shape-rendering:geometricPrecision; text-rendering:geometricPrecision; image-rendering:optimizeQuality; fill-rule:evenodd; clip-rule:evenodd" xmlns:xlink="http://www.w3.org/1999/xlink">
<g><path style="opacity:1" fill="#fdfefe" d="M -0.5,-0.5 C 74.5,-0.5 149.5,-0.5 224.5,-0.5C 224.5,50.1667 224.5,100.833 224.5,151.5C 217.569,118.922 197.402,101.255 164,98.5C 140.792,99.5962 123.125,109.93 111,129.5C 102.829,144.984 101.329,160.984 106.5,177.5C 115.766,204.23 134.599,218.23 163,219.5C 191.105,218.879 210.272,205.545 220.5,179.5C 222.306,174.609 223.639,169.609 224.5,164.5C 224.5,184.5 224.5,204.5 224.5,224.5C 149.5,224.5 74.5,224.5 -0.5,224.5C -0.5,207.167 -0.5,189.833 -0.5,172.5C 0.29819,175.231 1.96486,177.397 4.5,179C 36.4983,179.5 68.4983,179.667 100.5,179.5C 99.4441,174.219 98.7774,168.886 98.5,163.5C 75.8309,163.667 53.1642,163.5 30.5,163C 29.1059,162.044 28.4393,160.711 28.5,159C 29.2594,156.735 30.2594,154.568 31.5,152.5C 43.8036,135.346 55.9703,118.013 68,100.5C 70.0406,97.7522 71.5406,94.7522 72.5,91.5C 72.0488,81.0623 72.5488,70.729 74,60.5C 83.7559,59.3485 93.5893,59.1819 103.5,60C 104.667,60.5 105.5,61.3333 106,62.5C 106.333,73.1667 106.667,83.8333 107,94.5C 110.754,100.342 114.754,106.009 119,111.5C 123.274,107.226 128.107,103.726 133.5,101C 129,94.5 124.5,88 120,81.5C 119.5,61.5028 119.333,41.5028 119.5,21.5C 129.536,21.9676 133.703,17.3009 132,7.5C 131.167,6.66667 130.333,5.83333 129.5,5C 102.833,4.33333 76.1667,4.33333 49.5,5C 46.5715,8.25722 45.7382,12.0906 47,16.5C 50.3413,19.6963 54.3413,21.3629 59,21.5C 59.4983,24.8168 59.665,28.1501 59.5,31.5C 59.5,47.8333 59.5,64.1667 59.5,80.5C 42.8662,104.81 26.1995,129.144 9.5,153.5C 6.52249,158.469 3.18916,163.135 -0.5,167.5C -0.5,111.5 -0.5,55.5 -0.5,-0.5 Z"/></g>
<g><path style="opacity:1" fill="#0377d3" d="M 119.5,21.5 C 118.511,26.9753 118.178,32.642 118.5,38.5C 99.0998,38.3042 79.9331,38.6376 61,39.5C 60.8171,36.6353 60.3171,33.9686 59.5,31.5C 59.665,28.1501 59.4983,24.8168 59,21.5C 54.3413,21.3629 50.3413,19.6963 47,16.5C 45.7382,12.0906 46.5715,8.25722 49.5,5C 76.1667,4.33333 102.833,4.33333 129.5,5C 130.333,5.83333 131.167,6.66667 132,7.5C 133.703,17.3009 129.536,21.9676 119.5,21.5 Z"/></g>
<g><path style="opacity:1" fill="#0970c6" d="M 119.5,21.5 C 119.333,41.5028 119.5,61.5028 120,81.5C 124.5,88 129,94.5 133.5,101C 128.107,103.726 123.274,107.226 119,111.5C 114.754,106.009 110.754,100.342 107,94.5C 106.667,83.8333 106.333,73.1667 106,62.5C 105.5,61.3333 104.667,60.5 103.5,60C 93.5893,59.1819 83.7559,59.3485 74,60.5C 72.5488,70.729 72.0488,81.0623 72.5,91.5C 71.6724,85.6807 71.1724,79.6807 71,73.5C 67.6064,74.4558 64.1064,74.7892 60.5,74.5C 60.7947,76.7354 60.4614,78.7354 59.5,80.5C 59.5,64.1667 59.5,47.8333 59.5,31.5C 60.3171,33.9686 60.8171,36.6353 61,39.5C 79.9331,38.6376 99.0998,38.3042 118.5,38.5C 118.178,32.642 118.511,26.9753 119.5,21.5 Z"/></g>
<g><path style="opacity:1" fill="#1178d3" d="M 224.5,151.5 C 224.5,155.833 224.5,160.167 224.5,164.5C 223.639,169.609 222.306,174.609 220.5,179.5C 216.731,179.756 213.064,179.423 209.5,178.5C 219.022,147.046 208.689,124.879 178.5,112C 145.802,106.089 124.636,118.923 115,150.5C 113.808,159.425 114.641,168.092 117.5,176.5C 116.842,177.398 116.176,178.398 115.5,179.5C 113.724,179.282 111.891,179.282 110,179.5C 108.697,179.022 107.531,178.355 106.5,177.5C 101.329,160.984 102.829,144.984 111,129.5C 123.125,109.93 140.792,99.5962 164,98.5C 197.402,101.255 217.569,118.922 224.5,151.5 Z"/></g>
<g><path style="opacity:1" fill="#fcfdfd" d="M 209.5,178.5 C 197.264,202.949 177.597,212.449 150.5,207C 134.509,202.174 123.509,192.007 117.5,176.5C 114.641,168.092 113.808,159.425 115,150.5C 124.636,118.923 145.802,106.089 178.5,112C 208.689,124.879 219.022,147.046 209.5,178.5 Z"/></g>
<g><path style="opacity:1" fill="#b4ec38" d="M 151.5,118.5 C 152.5,118.5 153.5,118.5 154.5,118.5C 155.393,124.856 156.393,131.189 157.5,137.5C 146.557,140.952 140.557,148.452 139.5,160C 133.539,161.162 127.539,161.995 121.5,162.5C 121.601,140.935 131.601,126.269 151.5,118.5 Z"/></g>
<g><path style="opacity:1" fill="#f68d22" d="M 187.5,153.5 C 191.263,152.299 194.93,150.799 198.5,149C 200.011,146.218 199.178,144.385 196,143.5C 192.244,145.14 188.411,146.474 184.5,147.5C 180.049,141.276 174.049,137.609 166.5,136.5C 166.045,129.986 166.545,123.653 168,117.5C 190.515,120.849 203.015,133.849 205.5,156.5C 199.5,156.5 193.5,156.5 187.5,156.5C 187.5,155.5 187.5,154.5 187.5,153.5 Z"/></g>
<g><path style="opacity:1" fill="#0865b2" d="M 72.5,91.5 C 71.5406,94.7522 70.0406,97.7522 68,100.5C 55.9703,118.013 43.8036,135.346 31.5,152.5C 24.1104,152.236 16.7771,152.57 9.5,153.5C 26.1995,129.144 42.8662,104.81 59.5,80.5C 60.4614,78.7354 60.7947,76.7354 60.5,74.5C 64.1064,74.7892 67.6064,74.4558 71,73.5C 71.1724,79.6807 71.6724,85.6807 72.5,91.5 Z"/></g>
<g><path style="opacity:1" fill="#185ca1" d="M 187.5,153.5 C 182.249,155.695 176.916,157.695 171.5,159.5C 171.483,157.435 171.15,155.435 170.5,153.5C 175.467,152.012 180.134,150.012 184.5,147.5C 188.411,146.474 192.244,145.14 196,143.5C 199.178,144.385 200.011,146.218 198.5,149C 194.93,150.799 191.263,152.299 187.5,153.5 Z"/></g>
<g><path style="opacity:1" fill="#60a0ee" d="M 170.5,153.5 C 171.15,155.435 171.483,157.435 171.5,159.5C 169.773,167.502 165.106,169.669 157.5,166C 153.177,160.625 153.843,155.958 159.5,152C 163.357,151.242 167.023,151.742 170.5,153.5 Z"/></g>
<g><path style="opacity:1" fill="#115ea4" d="M 31.5,152.5 C 30.2594,154.568 29.2594,156.735 28.5,159C 28.4393,160.711 29.1059,162.044 30.5,163C 53.1642,163.5 75.8309,163.667 98.5,163.5C 98.7774,168.886 99.4441,174.219 100.5,179.5C 68.4983,179.667 36.4983,179.5 4.5,179C 1.96486,177.397 0.29819,175.231 -0.5,172.5C -0.5,170.833 -0.5,169.167 -0.5,167.5C 3.18916,163.135 6.52249,158.469 9.5,153.5C 16.7771,152.57 24.1104,152.236 31.5,152.5 Z"/></g>
<g><path style="opacity:1" fill="#b4ec37" d="M 138.5,169.5 C 140.288,169.215 141.955,169.548 143.5,170.5C 145.817,174.482 148.817,177.815 152.5,180.5C 149.842,185.956 146.675,190.956 143,195.5C 133.94,190.62 128.107,183.286 125.5,173.5C 130.165,172.922 134.499,171.589 138.5,169.5 Z"/></g>
<g><path style="opacity:1" fill="#0b65b4" d="M 117.5,176.5 C 123.509,192.007 134.509,202.174 150.5,207C 177.597,212.449 197.264,202.949 209.5,178.5C 213.064,179.423 216.731,179.756 220.5,179.5C 210.272,205.545 191.105,218.879 163,219.5C 134.599,218.23 115.766,204.23 106.5,177.5C 107.531,178.355 108.697,179.022 110,179.5C 111.891,179.282 113.724,179.282 115.5,179.5C 116.176,178.398 116.842,177.398 117.5,176.5 Z"/></g>
</svg>
